# xmcd CD database file
#
# Track frame offsets:
#	150
#	18686
#	36123
#	54209
#	69685
#	86609
#	103617
#	120823
#	138595
#	154097
#	169066
#	186015
#	201350
#	220129
#	239919
#	257828
#	274293
#
# Disc length: 3881 seconds
#
# Revision: 5
# Processed by: cddbd v1.4PL0 Copyright (c) Steve Scherf et al.
# Submitted via: CDex 1.40Beta8
#
DISCID=f90f2711
DTITLE=Νατάσα Θεωδορίδου - Υπ'ευθύνην μου
DYEAR=2001
DGENRE=Blues
TTITLE0=Καταζητείται (OJOS ASI)
TTITLE1=Υποκρισία
TTITLE2=Σου βάζω δύσκολα
TTITLE3=Εγώ δε θέλω και πολύ
TTITLE4=Τι φταίω
TTITLE5=Μονοπωλείς
TTITLE6=Τώρα το θυμήθηκες
TTITLE7=Δωρεάν
TTITLE8=Τελευταία μου αγάπη
TTITLE9=Είσαι συνήθεια κακιά
TTITLE10=Αποτύπωμα
TTITLE11=Να γυρίσεις
TTITLE12=Όσο και να σ' αγαπώ  (Υπ'ευθύνην μου)
TTITLE13=Ενθυμία
TTITLE14=Μια φορά και εσύ κάνε κάτι ( ντουέτο με τον Κώστα Δόξα)
TTITLE15=Κάλω ήρθες αγάπη
TTITLE16=Αδιέξοδη αγάπη
EXTD=YEAR: 2001 ID3G: 0
EXTT0=
EXTT1=
EXTT2=
EXTT3=
EXTT4=
EXTT5=
EXTT6=
EXTT7=
EXTT8=
EXTT9=
EXTT10=
EXTT11=
EXTT12=
EXTT13=
EXTT14=
EXTT15=
EXTT16=
PLAYORDER=
